<?xml version="1.0" encoding="utf-8"?>
<!-- Generator: Adobe Illustrator 26.0.1, SVG Export Plug-In . SVG Version: 6.00 Build 0)  -->
<svg version="1.1" id="Capa_1" xmlns="http://www.w3.org/2000/svg" xmlns:xlink="http://www.w3.org/1999/xlink" x="0px" y="0px"
	 viewBox="0 0 437.9 147.1" style="enable-background:new 0 0 437.9 147.1;" xml:space="preserve">
<style type="text/css">
	.st0{fill:#24599C;}
	.st1{fill:#178FCC;}
	.st2{fill-rule:evenodd;clip-rule:evenodd;fill:#2E6BB3;}
	.st3{fill-rule:evenodd;clip-rule:evenodd;fill:#6DCDF7;}
	.st4{fill:#FFFFFF;}
	.st5{fill:#2E6BB3;}
</style>
<path class="st0" d="M134.9,19.2L134.9,19.2L134.9,19.2c-0.2,2.3-0.9,4.6-2.2,6.5c-0.8,1.4-1.9,2.7-3.1,3.8l-0.1,0.1
	c-5.1,4.9-5.5,9.9-5.5,16.4s0.4,11.5,5.5,16.3c3.5,3.3,5.5,7,5.5,12.1c0,8.8-7.2,16-16,16s-16-7.2-16-16c0-5.1,2-8.8,5.5-12.1
	c5.1-4.8,5.5-9.9,5.5-16.3s-0.4-11.5-5.5-16.3c-0.4-0.4-0.8-0.7-1.1-1.1c-0.1-0.1-0.3-0.3-0.4-0.4c-4.8-5.1-9.9-5.5-16.3-5.5
	S79.1,23,74.3,28.1c-3.3,3.5-7,5.5-12.1,5.5c-8.8,0-16-7.2-16-16s7.2-16,16-16c5.1,0,8.8,2,12.1,5.5c4.8,5.1,9.9,5.5,16.3,5.5
	s11.5-0.4,16.3-5.5h0.1c1-1.1,2.2-2.1,3.4-2.9c2.5-1.7,5.5-2.5,8.6-2.5c8.8,0,16,7.2,16,16C135,18.1,135,18.7,134.9,19.2"/>
<path class="st1" d="M20.9,74.3L20.9,74.3c0-5.8-4.7-10.5-10.4-10.5S0,68.5,0,74.3s4.7,10.5,10.4,10.5l0,0
	C16.2,84.8,20.9,80.1,20.9,74.3"/>
<path class="st0" d="M180.4,74.3L180.4,74.3c0-5.8-4.7-10.5-10.4-10.5s-10.5,4.7-10.5,10.4c0,5.8,4.7,10.5,10.4,10.5l0,0
	C175.8,84.8,180.4,80.1,180.4,74.3L180.4,74.3"/>
<path class="st0" d="M46.3,131.1L46.3,131.1c0-5.1,2-8.8,5.5-12.1c5.1-4.8,5.5-9.9,5.5-16.3s-0.4-11.5-5.5-16.3
	c-3.5-3.3-5.5-7-5.5-12c0-8.8,7.2-16,16-16s16,7.2,16,16l0,0c0,5.1-2,8.8-5.5,12c-5.1,4.8-5.5,9.9-5.5,16.3s0.4,11.5,5.5,16.3
	c3.5,3.3,5.5,7,5.5,12.1c0,8.8-7.2,16-16,16S46.3,139.9,46.3,131.1"/>
<path class="st1" d="M33.9,30L33.9,30c3-0.1,5.9,0.8,8.4,2.3c1.4,0.8,2.6,1.8,3.6,3l0.1,0.1c4.8,5.1,9.9,5.6,16.3,5.6
	s11.5-0.4,16.3-5.5c3.3-3.5,7-5.5,12.1-5.5c8.8,0,16,7.2,16,16s-7.2,16-16,16c-5.1,0-8.8-2-12.1-5.5c-4.8-5.2-9.9-5.5-16.3-5.5
	S50.8,51.4,46,56.5c-0.2,0.3-0.5,0.5-0.8,0.8l0,0c-0.2,0.2-0.5,0.5-0.8,0.8c-5.1,4.8-5.5,9.9-5.5,16.3s0.4,11.5,5.5,16.3
	c3.5,3.3,5.5,7,5.5,12c0,8.8-7.2,16-16,16s-16-7.2-16-16c0-5,2-8.8,5.5-12c5.1-4.8,5.5-9.9,5.5-16.3S28.5,62.8,23.4,58l-0.1-0.1
	c-1.2-1.1-2.2-2.3-3-3.6c-1.6-2.5-2.4-5.4-2.4-8.3C17.9,37.2,25,30,33.9,30"/>
<path class="st1" d="M147.4,118.7c-3,0.1-5.9-0.8-8.4-2.3c-1.3-0.8-2.6-1.8-3.6-3l-0.1-0.1c-4.8-5.1-9.9-5.5-16.3-5.5
	s-11.5,0.4-16.3,5.5c-3.3,3.5-7,5.5-12.1,5.5c-8.8,0-16-7.2-16-16s7.2-16,16-16c5.1,0,8.8,2,12.1,5.5c4.8,5.1,9.9,5.5,16.3,5.5
	s11.5-0.4,16.3-5.5c0.2-0.3,0.5-0.5,0.8-0.8l0,0c0.2-0.3,0.5-0.5,0.8-0.8c5.1-4.8,5.5-9.9,5.5-16.3S142,62.8,136.9,58
	c-3.5-3.3-5.5-7-5.5-12.1c0-8.8,7.2-16,16-16s16,7.2,16,16c0,5.1-2,8.8-5.5,12.1c-5.1,4.8-5.5,9.9-5.5,16.3s0.4,11.5,5.5,16.3
	l0.1,0.1c1.2,1.1,2.2,2.3,3,3.6c1.6,2.5,2.4,5.4,2.4,8.3C163.4,111.5,156.2,118.7,147.4,118.7"/>
<path class="st2" d="M134.9,19.2L134.9,19.2L134.9,19.2c-0.2,2.3-0.9,4.6-2.2,6.5c-0.8,1.4-1.9,2.7-3.1,3.8l-0.1,0.1
	c-5.1,4.9-5.5,9.9-5.5,16.4s0.4,11.5,5.5,16.3c3.5,3.3,5.5,7,5.5,12.1c0,3.9-1.4,7.7-4,10.6c-1.8-2.8-3.8-4.9-6.3-5.7
	c-5.7-1.9-11.5,1.4-19,4c-1.8-2.6-2.7-5.7-2.7-8.9c0-5.1,2-8.8,5.5-12.1c5.1-4.8,5.5-9.9,5.5-16.3s-0.4-11.5-5.5-16.3
	c-0.4-0.4-0.8-0.7-1.1-1.1c-0.1-0.1-0.3-0.3-0.4-0.4c-4.8-5.1-9.9-5.5-16.3-5.5S79.1,23,74.3,28.1c-3.3,3.5-7,5.5-12.1,5.5
	c-8.8,0-16-7.2-16-16s7.2-16,16-16c5.1,0,8.8,2,12.1,5.5c4.8,5.1,9.9,5.5,16.3,5.5s11.5-0.4,16.3-5.5h0.1c1-1.1,2.2-2.1,3.4-2.9
	c2.5-1.7,5.5-2.5,8.6-2.5c8.8,0,16,7.2,16,16C135,18.1,135,18.7,134.9,19.2"/>
<path class="st2" d="M180.4,74.3L180.4,74.3c0-5.8-4.7-10.5-10.4-10.5s-10.5,4.7-10.5,10.4c0,5.8,4.7,10.5,10.4,10.5l0,0
	C175.8,84.8,180.4,80.1,180.4,74.3L180.4,74.3"/>
<path class="st2" d="M63.2,58.4c8.5,0.5,15.1,7.5,15.1,16c0,2.9-0.7,5.7-2.2,8.1C68.7,77.4,68,67.4,63.2,58.4"/>
<path class="st3" d="M33.9,30L33.9,30c3-0.1,5.9,0.8,8.4,2.3c1.4,0.8,2.6,1.8,3.6,3l0.1,0.1c4.8,5.1,9.9,5.6,16.3,5.6
	s11.5-0.4,16.3-5.5c3.3-3.5,7-5.5,12.1-5.5c8.8,0,16,7.2,16,16s-7.2,16-16,16c-5.1,0-8.8-2-12.1-5.5c-4.8-5.2-9.9-5.5-16.3-5.5
	c-1.6,0-3,0-4.5,0.1c-1.3-1.3-2.8-2.5-4.3-3.5C43.1,40.7,29,44,18,45C18.4,36.6,25.4,30,33.9,30"/>
<path class="st3" d="M135.2,92.3L135.2,92.3c0.3-0.4,0.6-0.6,0.8-0.9l0,0c0.2-0.3,0.5-0.5,0.8-0.8c5.1-4.8,5.5-9.9,5.5-16.3
	S142,62.8,136.9,58c-3.5-3.3-5.5-7-5.5-12.1c0-8.8,7.2-16,16-16s16,7.2,16,16c0,5.1-2,8.8-5.5,12.1c-5.1,4.8-5.5,9.9-5.5,16.3
	s0.4,11.5,5.5,16.3l0.1,0.1c1.2,1.1,2.2,2.3,3,3.6c1.6,2.5,2.4,5.4,2.4,8.3c0,0.6,0,1.1-0.1,1.7c-2.7,0.5-5.4,0.9-7.9,1.3
	C144.6,107.4,139.5,99.8,135.2,92.3"/>
<path class="st4" d="M243.8,82.4c-9.2,0-16.1-2.2-20.8-6.7s-7-10.9-7-19.4V45.5c0-8.5,2.2-15.1,6.5-19.7s10.7-6.9,19-6.9
	c5.6,0,10.2,1,14,3.1c3.7,2,6.7,5.1,8.5,8.9c2,4.3,3,9,2.9,13.8v2.2c0,1.3-0.1,2.6-0.2,3.9s-0.2,2.6-0.4,3.9h-9.1
	c0.1-2,0.1-3.9,0.2-5.6s0-3.4,0-4.9c0.1-3.2-0.5-6.4-1.8-9.4c-1.1-2.4-2.9-4.5-5.2-5.8c-2.7-1.4-5.7-2.1-8.8-2
	c-5.2,0-9.2,1.5-11.8,4.5s-3.9,7.4-3.9,13.1v5.7l0.1,1.2v5.8c0,2.3,0.4,4.7,1.2,6.9c0.7,2,1.9,3.8,3.5,5.2c1.8,1.5,3.8,2.7,6.1,3.3
	c2.9,0.8,5.8,1.2,8.8,1.2c3.7,0,7.4-0.5,10.9-1.6c3.4-1,6.6-2.5,9.6-4.2l-1,8.6c-2.9,1.8-6,3.2-9.3,4.1
	C251.7,81.9,247.7,82.4,243.8,82.4z M221.2,54.7v-7.4h43v7.4H221.2z"/>
<path class="st4" d="M272.5,52.4v-7.5h14.1v7.5H272.5z"/>
<path class="st4" d="M320.9,82.7c-6,0-11.1-1.3-15.2-3.9c-4.1-2.7-7.4-6.6-9.1-11.2c-2.1-5.6-3.2-11.6-3-17.6V35.2
	c0-11.4,3-20.2,9.1-26.2s15.1-9,26.9-9c3.5,0,6.9,0.2,10.3,0.8c2.9,0.4,5.8,1.1,8.6,2c2.3,0.7,4.6,1.7,6.7,2.8l1.5,15.2
	c-3.4-1.5-6.8-2.8-10.4-3.7c-4.3-1.2-8.8-1.8-13.3-1.7c-7.3,0-12.7,1.7-16.2,5.1s-5.2,8.6-5.2,15.7v14c0,5.5,1.3,9.8,3.9,12.9
	c2.6,3,6.6,4.6,12.1,4.6c2.2,0.1,4.4-0.3,6.5-1.2c1.7-0.7,3.3-1.7,4.6-3c1.2-1.2,2.1-2.6,2.8-4.2v-16l2.4,5.3l-15.8,0.1v-14h30.5V68
	h-17.5c-0.6,2.7-1.7,5.2-3.2,7.5c-1.6,2.3-3.8,4.2-6.3,5.3C328.3,82.2,324.6,82.9,320.9,82.7z M342,64.7h16.7V81h-17.3L342,64.7z"/>
<path class="st4" d="M404,82.8c-11.3,0-19.8-2.9-25.4-8.6c-5.7-5.7-8.5-14-8.5-24.8V33.8c0-10.8,2.9-19.1,8.6-25S392.8,0,404,0
	s19.7,2.9,25.3,8.8s8.5,14.2,8.5,25v15.6c0,10.8-2.8,19.1-8.5,24.8S415.3,82.8,404,82.8z M404,68.1c5.3,0,9.2-1.6,11.8-4.7
	c2.6-3.1,3.9-7.5,3.9-13.2V33c0-5.9-1.3-10.4-3.9-13.6c-2.6-3.1-6.5-4.7-11.8-4.7s-9.2,1.6-11.8,4.7c-2.6,3.1-3.9,7.7-3.9,13.6v17.2
	c0,5.7,1.3,10.1,3.9,13.2C394.8,66.5,398.7,68.1,404,68.1z"/>
<path class="st5" d="M216,102.7v-2.6h20.8v2.6H216z M224.8,124.9v-24.1h3.1v24.1H224.8z"/>
<path class="st5" d="M241.6,124.9v-24.8h3.1v24.8C244.7,124.9,241.6,124.9,241.6,124.9z M242.2,102.7v-2.6h17.2v2.6H242.2z
	 M242.2,124.9v-2.6h17.4v2.6H242.2z M243.3,113.5V111H259v2.6L243.3,113.5z"/>
<path class="st5" d="M274.8,125.3c-3.7,0-6.4-1-8.3-2.9s-2.8-4.6-2.8-8.2v-3.7c0-3.5,0.9-6.2,2.8-8.1s4.6-2.9,8.2-2.9
	c1.1,0,2.2,0.1,3.3,0.3c0.9,0.2,1.8,0.5,2.6,0.8c0.7,0.3,1.4,0.6,2,1l0.2,2.9c-1-0.7-2.1-1.3-3.3-1.7c-1.5-0.5-3-0.8-4.5-0.7
	c-2.2-0.2-4.4,0.6-6,2.2c-1.5,1.7-2.2,3.9-2,6.2v3.7c-0.1,2.2,0.6,4.4,2.1,6.2c1.4,1.5,3.4,2.2,6.2,2.2c1.5,0,3-0.2,4.5-0.7
	c1.2-0.4,2.3-1,3.4-1.7l-0.3,2.9c-0.6,0.4-1.3,0.7-2,1c-0.9,0.4-1.8,0.7-2.7,0.8C277.1,125.2,276,125.3,274.8,125.3z"/>
<path class="st5" d="M291.5,124.9h-3.1v-24.8h3.1V124.9z M290.1,110.8h17.2v2.6h-17.2V110.8z M309.1,124.9H306v-24.8h3.1V124.9z"/>
<path class="st5" d="M320.4,100.1l12.8,21.6h0.3l-0.1-10.5v-11h3V125h-4.6L319,103.1h-0.3l0.1,11.3v10.5h-3.1v-24.8
	C315.7,100.1,320.4,100.1,320.4,100.1z"/>
<path class="st5" d="M353.2,125.4c-3.6,0-6.4-1-8.4-2.9c-1.9-1.9-2.9-4.7-2.9-8.2v-3.6c0-3.6,1-6.3,2.9-8.2s4.7-2.9,8.4-2.9
	s6.5,1,8.4,2.9s2.9,4.7,2.9,8.2v3.6c0,3.5-1,6.3-2.9,8.2S356.9,125.4,353.2,125.4z M353.2,122.8c2.7,0,4.7-0.7,6-2.2
	c1.4-1.7,2.2-4,2-6.2v-3.7c0.2-2.2-0.6-4.5-2-6.2c-1.3-1.5-3.3-2.2-6-2.2c-2.2-0.2-4.4,0.6-6,2.2c-1.4,1.7-2.2,4-2,6.2v3.7
	c-0.2,2.3,0.6,4.5,2,6.2C348.8,122.1,351,122.9,353.2,122.8z"/>
<path class="st5" d="M373.1,124.9H370v-24.8h3.1V124.9z M371.7,122.2h15.5v2.6h-15.5V122.2z"/>
<path class="st5" d="M399.9,125.4c-2,0.1-3.9-0.4-5.7-1.3c-1.5-0.8-2.8-2.1-3.5-3.7c-0.9-1.8-1.3-3.9-1.2-5.9v-3.7
	c0-3.6,1-6.3,3-8.2s4.9-2.9,8.7-2.9c1.3,0,2.5,0.1,3.8,0.3c1,0.2,2,0.5,3,0.9c0.8,0.3,1.5,0.7,2.2,1.1l0.3,2.8
	c-1.2-0.7-2.5-1.3-3.8-1.7c-1.7-0.5-3.4-0.8-5.1-0.7c-2.9,0-5.1,0.7-6.6,2.2c-1.6,1.7-2.4,4-2.2,6.3v3.7c-0.1,2.2,0.6,4.4,2.1,6.1
	c1.4,1.4,3.4,2.1,6.1,2.2c1.2,0,2.3-0.2,3.4-0.6c0.9-0.4,1.7-0.9,2.4-1.6c0.6-0.6,1.1-1.4,1.4-2.2v-5.7l0.5,1.1h-7.4v-2.6h9.9v9.2
	h-3c-0.2,0.9-0.7,1.8-1.3,2.5c-0.7,0.8-1.6,1.5-2.6,1.9C402.8,125.2,401.3,125.4,399.9,125.4z M408.1,119.5h2.9v5.4h-3L408.1,119.5z
	"/>
<path class="st5" d="M423.9,117.4l-10-17.3h3.4l5.6,9.9l2.2,4h0.2l2.2-4l5.6-9.9h3.4l-10,17.3L423.9,117.4z M423.7,124.9v-10.2h3.1
	v10.2H423.7z"/>
</svg>
